<svg width="18" height="10" viewBox="0 0 540 300" fill="none" xmlns="http://www.w3.org/2000/svg">
  <style>
    .gray-shape {
    	fill: #c6c6c6; /* Light mode */
    }

    @media (prefers-color-scheme: dark) {
    	.gray-shape {
    		fill: #565656; /* Dark mode */
    	}
    }
  </style>
  <path d="M150 0L240 90L210 120L120 30L150 0Z" fill="#F09409" />
  <path class="gray-shape" d="M420 30L540 150L420 270L390 240L480 150L390 60L420 30Z" />
  <path d="M330 180L300 210L390 300L420 270L330 180Z" fill="#F09409" />
  <path class="gray-shape" d="M120 30L150 60L60 150L150 240L120 270L0 150L120 30Z" />
  <path d="M390 0L420 30L150 300L120 270L390 0Z" fill="#F09409" />
</svg>
