<svg viewBox="0 0 79.301 98" fill="none" xmlns="http://www.w3.org/2000/svg">
  <g fill="#099949">
    <path d="M30.3 6 a42.82 42.82 0 0 0-26.616 9.226
             A59.25 59.25 0 0 0 0 10.489 48.787 48.787 0 0 1 30.3 0 c27.063 0 49 21.938 49 49
             s-21.937 49-49 49 A48.786 48.786 0 0 1 0 87.511 a59.307 59.307 0 0 0 3.684-4.737
             A42.823 42.823 0 0 0 30.3 92 c23.748 0 43-19.252 43-43 S54.049 6 30.3 6 Z"
          fill-rule="evenodd"
          clip-rule="evenodd" />
    <path d="M33.78 58.149 53.3 38.827 48.426 34 l-19.52 19.322 -9.728-9.629 L14.3 48.52 28.929 63
             l4.876-4.827 Z" />
  </g>
</svg>