<svg viewBox="0 0 100 100" fill="none" xmlns="http://www.w3.org/2000/svg">
  <g transform="translate(-100 -100)" clip-path="url(#a)">
    <path d="M150.001 174.999
             c13.808 0 25.001-11.194 25.001-25.002 0-13.808-11.193-25.001-25.001-25.001-13.808 0-25.001 11.193-25.001 25.001 0 13.808 11.193 25.002 25.001 25.002
             z"
          fill="#fff" />
    <path d="m128.349 162.504 -21.648-37.496 a49.994 49.994 0 0 0 18.302 68.299
             A49.981 49.981 0 0 0 150.004 200 l21.648-37.496 v-.006
             a24.992 24.992 0 0 1-34.152 9.16 24.989 24.989 0 0 1-9.151-9.153 z"
          fill="#229342" />
    <path d="m171.651 162.502 -21.648 37.496 A49.984 49.984 0 0 0 193.304 175
             a49.995 49.995 0 0 0-.008-50 h-43.297 l-.005.004 a24.995 24.995 0 0 1 21.657 37.499 z"
          fill="#fbc116" />
    <path d="M150.001 169.796 c10.931 0 19.793-8.862 19.793-19.793 0-10.932-8.862-19.793-19.793-19.793
             s-19.793 8.861-19.793 19.793 c0 10.931 8.862 19.793 19.793 19.793 z"
          fill="#1a73e8" />
    <path d="M150.001 125.002 h43.296 a49.99 49.99 0 0 0-86.596.005 l21.649 37.496 .005.004
             a25.004 25.004 0 0 1-.008-25.005 24.996 24.996 0 0 1 21.655-12.501 z"
          fill="#e33b2e" />
  </g>
  <defs>
    <clipPath id="a">
      <path d="M100 100h100v100H100z" fill="#fff" />
    </clipPath>
  </defs>
</svg>
