<svg viewBox="0 0 79.301 98" fill="none" xmlns="http://www.w3.org/2000/svg">
  <g fill="#666">
    <path d="M30.3 6 a42.823 42.823 0 0 0-26.616 9.226
             A59.307 59.307 0 0 0 0 10.489 48.786 48.786 0 0 1 30.3 0 c27.063 0 49 21.938 49 49
             s-21.937 49-49 49 A48.786 48.786 0 0 1 0 87.511 a59.307 59.307 0 0 0 3.684-4.737
             A42.823 42.823 0 0 0 30.3 92 c23.748 0 43-19.252 43-43 S54.049 6 30.3 6 Z"
          fill-rule="evenodd"
          clip-rule="evenodd" />
    <path d="m38.633 48.5 9.667-9.667 L43.467 34 33.8 43.667 24.134 34 19.3 38.834 l9.666 9.666
             -9.666 9.666 4.833 4.833 9.666-9.666 9.666 9.666 4.834-4.833 z" />
  </g>
</svg>