<svg viewBox="0 0 100 99.957" fill="none" xmlns="http://www.w3.org/2000/svg">
  <g transform="translate(-100 -300)" clip-path="url(#a)">
    <path d="M190.273 374.414 a36.57 36.57 0 0 1-4.14 1.836 39.793 39.793 0 0 1-14.024 2.5
             c-18.476 0-34.57-12.695-34.57-29.023 a12.307 12.307 0 0 1 6.406-10.665
             c-16.718.704-21.015 18.126-21.015 28.321 0 28.906 26.601 31.797 32.343 31.797 3.086 0 7.735-.899 10.547-1.797
             l.508-.156 a50.122 50.122 0 0 0 26.016-20.625 1.565 1.565 0 0 0-2.071-2.188 z"
          fill="url(#b)"
          style="fill:url(#b)" />
    <path d="M190.273 374.414 a36.57 36.57 0 0 1-4.14 1.836 39.793 39.793 0 0 1-14.024 2.5
             c-18.476 0-34.57-12.695-34.57-29.023 a12.307 12.307 0 0 1 6.406-10.665
             c-16.718.704-21.015 18.126-21.015 28.321 0 28.906 26.601 31.797 32.343 31.797 3.086 0 7.735-.899 10.547-1.797
             l.508-.156 a50.122 50.122 0 0 0 26.016-20.625 1.565 1.565 0 0 0-2.071-2.188 z"
          fill="url(#c)"
          opacity=".35"
          style="fill:url(#c)" />
    <path d="M141.289 394.258 a30.949 30.949 0 0 1-8.867-8.32 31.524 31.524 0 0 1 11.523-46.875
             c1.25-.586 3.321-1.602 6.094-1.563
             a12.655 12.655 0 0 1 10.039 5.078 12.463 12.463 0 0 1 2.461 7.305
             c0-.078 9.57-31.094-31.25-31.094-17.148 0-31.25 16.25-31.25 30.547
             a50.849 50.849 0 0 0 4.727 21.875 49.998 49.998 0 0 0 61.093 26.172 29.498 29.498 0 0 1-24.531-3.125
             z"
          fill="url(#d)"
          style="fill:url(#d)" />
    <path d="M141.289 394.258 a30.949 30.949 0 0 1-8.867-8.32 31.524 31.524 0 0 1 11.523-46.875
             c1.25-.586 3.321-1.602 6.094-1.563
             a12.655 12.655 0 0 1 10.039 5.078 12.463 12.463 0 0 1 2.461 7.305
             c0-.078 9.57-31.094-31.25-31.094-17.148 0-31.25 16.25-31.25 30.547
             a50.849 50.849 0 0 0 4.727 21.875 49.998 49.998 0 0 0 61.093 26.172 29.498 29.498 0 0 1-24.531-3.125
             z"
          fill="url(#e)"
          opacity=".41"
          style="fill:url(#e)" />
    <path d="M159.531 358.125
             c-.351.391-1.328.977-1.328 2.187 0 1.016.664 2.032 1.875 2.852 5.586 3.906 16.172 3.359 16.211 3.359
             a23.272 23.272 0 0 0 11.836-3.242 A23.98 23.98 0 0 0 200 342.617
             c.117-8.75-3.125-14.57-4.414-17.148 C187.266 309.297 169.414 300 150 300
             a50.002 50.002 0 0 0-50 49.297
             c.195-14.258 14.375-25.781 31.25-25.781 1.367 0 9.18.117 16.406 3.906
             a28.36 28.36 0 0 1 12.071 11.445
             c2.382 4.141 2.812 9.414 2.812 11.524 0 2.109-1.055 5.195-3.047 7.773 z"
          fill="url(#f)"
          style="fill:url(#f)" />
    <path d="M159.531 358.125
             c-.351.391-1.328.977-1.328 2.187 0 1.016.664 2.032 1.875 2.852 5.586 3.906 16.172 3.359 16.211 3.359
             a23.272 23.272 0 0 0 11.836-3.242 A23.98 23.98 0 0 0 200 342.617
             c.117-8.75-3.125-14.57-4.414-17.148 C187.266 309.297 169.414 300 150 300
             a50.002 50.002 0 0 0-50 49.297
             c.195-14.258 14.375-25.781 31.25-25.781 1.367 0 9.18.117 16.406 3.906
             a28.36 28.36 0 0 1 12.071 11.445
             c2.382 4.141 2.812 9.414 2.812 11.524 0 2.109-1.055 5.195-3.047 7.773 z"
          fill="url(#g)"
          style="fill:url(#g)" />
  </g>
  <defs>
    <radialGradient id="c"
                    cx="0" cy="0" r="1"
                    gradientTransform="matrix(37.2656 0 0 35.4023 161.406 369.666)"
                    gradientUnits="userSpaceOnUse">
      <stop offset=".7" stop-opacity="0" />
      <stop offset=".9" stop-opacity=".5" />
      <stop offset="1" />
    </radialGradient>
    <radialGradient id="e"
                    cx="0" cy="0" r="1"
                    gradientTransform="matrix(8.39058 -55.37816 44.73998 6.77875 127.561 377.71)"
                    gradientUnits="userSpaceOnUse">
      <stop offset=".8" stop-opacity="0" />
      <stop offset=".9" stop-opacity=".5" />
      <stop offset="1" />
    </radialGradient>
    <radialGradient id="f"
                    cx="0" cy="0" r="1"
                    gradientTransform="matrix(-3.16249 79.06248 -168.38635 -6.73542 110.113 318.483)"
                    gradientUnits="userSpaceOnUse">
      <stop stop-color="#35C1F1" />
      <stop offset=".1" stop-color="#34C1ED" />
      <stop offset=".2" stop-color="#2FC2DF" />
      <stop offset=".3" stop-color="#2BC3D2" />
      <stop offset=".7" stop-color="#36C752" />
    </radialGradient>
    <radialGradient id="g"
                    cx="0" cy="0" r="1"
                    gradientTransform="matrix(10.64218 36.48749 -29.67168 8.65424 193.773 330.195)"
                    gradientUnits="userSpaceOnUse">
      <stop stop-color="#66EB6E" />
      <stop offset="1" stop-color="#66EB6E" stop-opacity="0" />
    </radialGradient>
    <linearGradient id="b"
                    x1="122.93" y1="369.141" x2="192.617" y2="369.141"
                    gradientUnits="userSpaceOnUse">
      <stop stop-color="#0C59A4" />
      <stop offset="1" stop-color="#114A8B" />
    </linearGradient>
    <linearGradient id="d"
                    x1="159.648" y1="338.906" x2="116.172" y2="386.289"
                    gradientUnits="userSpaceOnUse">
      <stop stop-color="#1B9DE2" />
      <stop offset=".2" stop-color="#1595DF" />
      <stop offset=".7" stop-color="#0680D7" />
      <stop offset="1" stop-color="#0078D4" />
    </linearGradient>
    <clipPath id="a">
      <path d="M100 300h100v100H100z" fill="#fff" />
    </clipPath>
  </defs>
</svg>