<svg viewBox="0 0 95.038 95.748" fill="none" xmlns="http://www.w3.org/2000/svg">
  <g transform="translate(-102.481 -703)" clip-path="url(#a)">
    <path d="M195.609 754.589
             a42.946 42.946 0 0 1-3.471 16.899 44.106 44.106 0 0 1-9.887 14.326 45.732 45.732 0 0 1-14.796 9.572 46.912 46.912 0 0 1-17.453 3.362 46.912 46.912 0 0 1-17.453-3.362 45.742 45.742 0 0 1-14.796-9.572 44.103 44.103 0 0 1-9.886-14.326 42.947 42.947 0 0 1-3.472-16.899
             c0-11.712 4.805-22.943 13.358-31.225 8.553-8.281 20.154-12.934 32.249-12.934 5.989 0 11.92 1.143 17.453 3.362
             a45.732 45.732 0 0 1 14.796 9.572 44.106 44.106 0 0 1 9.887 14.326 42.946 42.946 0 0 1 3.471 16.899
             z"
          fill="#000"
          opacity=".53" />
    <path d="M197.343 750.69
             a47.837 47.837 0 0 1-3.603 18.217 47.641 47.641 0 0 1-10.263 15.444 47.324 47.324 0 0 1-15.359 10.319
             A47.128 47.128 0 0 1 150 798.294
             a47.216 47.216 0 0 1-33.477-13.943 47.74 47.74 0 0 1-13.866-33.661 47.737 47.737 0 0 1 13.866-33.661
             A47.212 47.212 0 0 1 150 703.086
             a47.127 47.127 0 0 1 18.118 3.623 47.327 47.327 0 0 1 15.359 10.32 47.63 47.63 0 0 1 10.263 15.444 47.83 47.83 0 0 1 3.603 18.217
             z"
          fill="url(#b)"
          stroke="#cdcdcd"
          stroke-width=".352"
          style="fill:url(#b)"
          stroke-linecap="round"
          stroke-linejoin="round" />
    <path d="M193.634 750.69 a43.995 43.995 0 0 1-12.78 31.023 A43.514 43.514 0 0 1 150 794.563
             a43.514 43.514 0 0 1-30.854-12.85 43.995 43.995 0 0 1-12.78-31.023 43.998 43.998 0 0 1 12.78-31.024
             A43.514 43.514 0 0 1 150 706.816
             a43.514 43.514 0 0 1 30.854 12.85 43.998 43.998 0 0 1 12.78 31.024 z"
          fill="url(#c)"
          style="fill:url(#c)" />
    <path d="M150 709.104 a.637.637 0 0 0-.636.64 v7.378 a.637.637 0 1 0 1.272 0 v-7.378
             a.637.637 0 0 0-.636-.64 z m-4.162.265 a.638.638 0 0 0-.696.703 l.321 3.086
             a.635.635 0 1 0 1.265-.132 l-.32-3.087 a.636.636 0 0 0-.57-.57 z
             m8.353.003 a.635.635 0 0 0-.57.57 l-.323 3.086 a.637.637 0 1 0 1.265.134 l.323-3.087
             a.638.638 0 0 0-.695-.703 z m-12.628.62 a.638.638 0 0 0-.619.772 l1.52 7.218
             a.635.635 0 1 0 1.244-.265 l-1.519-7.218 a.636.636 0 0 0-.626-.507 z
             m16.903.006 a.635.635 0 0 0-.626.507 l-1.525 7.217
             a.639.639 0 0 0 .49.759.634.634 0 0 0 .754-.493 l1.525-7.217 a.638.638 0 0 0-.618-.773 z
             m-20.983 1.151 a.64.64 0 0 0-.66.835 l.954 2.952 c.109.337.467.52.802.411
             a.64.64 0 0 0 .408-.807 l-.954-2.951 a.634.634 0 0 0-.55-.44 z
             m25.04.001 a.638.638 0 0 0-.551.44 l-.954 2.952
             a.639.639 0 0 0 .408.806.635.635 0 0 0 .802-.411 l.954-2.951 a.64.64 0 0 0-.659-.836 z
             m-29.075 1.483 a.64.64 0 0 0-.569.9 l2.98 6.742
             a.634.634 0 0 0 .84.325.64.64 0 0 0 .323-.844 l-2.981-6.742 a.635.635 0 0 0-.593-.381 z
             m33.155.023 a.634.634 0 0 0-.593.38 l-2.99 6.738 a.64.64 0 0 0 .322.844
             c.322.145.696 0 .84-.323 l2.989-6.738 a.639.639 0 0 0-.568-.901 z
             m-36.9 1.97 a.641.641 0 0 0-.595.958 l1.543 2.688
             a.633.633 0 0 0 .869.234.639.639 0 0 0 .233-.874 l-1.543-2.687 a.633.633 0 0 0-.507-.319 z
             m40.594 0 a.631.631 0 0 0-.507.319 l-1.543 2.687
             a.64.64 0 0 0 .233.874.633.633 0 0 0 .869-.234 l1.543-2.688 a.641.641 0 0 0-.595-.958 z
             m-44.23 2.28 a.641.641 0 0 0-.493 1.016 l4.308 5.972 c.207.287.604.35.889.142
             a.64.64 0 0 0 .141-.893 l-4.309-5.972 a.63.63 0 0 0-.536-.265 z
             m47.912.033 a.63.63 0 0 0-.537.263 l-4.317 5.967
             a.64.64 0 0 0 .14.893.633.633 0 0 0 .889-.14 l4.317-5.967 a.642.642 0 0 0-.492-1.016 z
             m-51.163 2.708 a.641.641 0 0 0-.506 1.068 l2.065 2.306
             a.633.633 0 0 0 .899.048.641.641 0 0 0 .047-.904 l-2.065-2.306 a.634.634 0 0 0-.44-.212 z
             m54.372.005 a.637.637 0 0 0-.439.211 l-2.066 2.307
             a.64.64 0 0 0 .047.903.633.633 0 0 0 .899-.047 l2.065-2.306 a.641.641 0 0 0-.506-1.068 z
             m-57.487 3.004 a.64.64 0 0 0-.392 1.115 l5.453 4.937
             a.633.633 0 0 0 .899-.048.64.64 0 0 0-.047-.903 l-5.454-4.937 a.637.637 0 0 0-.459-.164 z
             m60.618.022 a.631.631 0 0 0-.46.164 l-5.456 4.932 a.64.64 0 0 0 .85.952 l5.457-4.933
             a.64.64 0 0 0-.391-1.115 z m-63.209 3.328 a.64.64 0 0 0-.396 1.157 l2.497 1.825
             a.633.633 0 0 0 .889-.142.64.64 0 0 0-.141-.893 l-2.497-1.825 a.63.63 0 0 0-.352-.122 z
             m65.797.023 a.64.64 0 0 0-.352.122 l-2.498 1.823 a.642.642 0 0 0-.142.894
             c.207.286.604.35.889.141 l2.498-1.822 a.642.642 0 0 0-.395-1.158 z
             m-68.218 3.55 a.64.64 0 0 0-.273 1.193 l6.354 3.689 a.64.64 0 0 0 .637-1.108 l-6.355-3.689
             a.627.627 0 0 0-.363-.085 z m70.622 0 a.627.627 0 0 0-.363.085 l-6.355 3.689
             a.64.64 0 0 0 .637 1.108 l6.355-3.689 a.64.64 0 0 0-.274-1.193 z
             m-72.452 3.808 a.64.64 0 0 0-.272 1.224 l2.819 1.265 a.64.64 0 0 0 .518-1.169 l-2.819-1.264
             a.638.638 0 0 0-.246-.056 z m74.295.027 a.62.62 0 0 0-.247.055 l-2.82 1.263
             a.64.64 0 0 0-.323.844 c.144.324.518.469.84.324 l2.82-1.262 a.64.64 0 0 0-.27-1.224 z
             m-75.927 3.954 a.64.64 0 0 0-.143 1.246 l6.977 2.286 a.64.64 0 0 0 .395-1.217 l-6.977-2.286
             a.643.643 0 0 0-.252-.029 z m77.555.027 a.623.623 0 0 0-.251.03 l-6.979 2.281
             a.639.639 0 0 0-.408.806 c.109.337.467.52.802.41 l6.978-2.281 a.64.64 0 0 0-.142-1.246 z
             m-78.571 4.151 a.635.635 0 0 0-.626.507.638.638 0 0 0 .49.759 l3.019.645
             a.634.634 0 0 0 .754-.493.637.637 0 0 0-.49-.758 l-3.019-.646 a.627.627 0 0 0-.128-.014 z
             m79.58.006 a.808.808 0 0 0-.129.014 l-3.019.645 a.638.638 0 0 0-.49.758
             c.073.347.41.567.754.493 l3.02-.645 a.638.638 0 0 0 .49-.758.635.635 0 0 0-.626-.507 z
             m-80.35 4.197 a.636.636 0 0 0-.57.57.637.637 0 0 0 .566.703 l7.297.776
             a.636.636 0 0 0 .7-.569.639.639 0 0 0-.566-.704 l-7.297-.775 a.628.628 0 0 0-.13-.001 z
             m81.124.055 a.619.619 0 0 0-.129.001 l-7.298.766
             a.637.637 0 0 0-.567.702.635.635 0 0 0 .699.57 l7.298-.766
             a.638.638 0 0 0 .567-.702.637.637 0 0 0-.57-.571 z
             m-81.247 4.247 a.637.637 0 0 0-.636.64 c0 .354.283.64.636.64 h3.087
             a.637.637 0 0 0 .636-.64.637.637 0 0 0-.636-.64 z
             m78.277 0 a.637.637 0 0 0-.636.64 c0 .354.284.64.636.64 h3.087
             a.637.637 0 0 0 .636-.64.637.637 0 0 0-.636-.64 z
             m-70.736 3.487 a.619.619 0 0 0-.129.001 l-7.298.766
             a.637.637 0 0 0-.567.702.635.635 0 0 0 .699.57 l7.298-.766
             a.638.638 0 0 0 .567-.702.637.637 0 0 0-.57-.571 z
             m66.278.046 a.635.635 0 0 0-.57.569.638.638 0 0 0 .565.704 l7.297.775
             a.635.635 0 0 0 .7-.569.637.637 0 0 0-.566-.703 l-7.297-.776 a.695.695 0 0 0-.129 0 z
             m-69.916 4.321 a.627.627 0 0 0-.128.014 l-3.019.645 a.638.638 0 0 0-.491.758
             c.074.347.41.567.755.493 l3.019-.645 a.637.637 0 0 0 .49-.758.634.634 0 0 0-.626-.507 z
             m73.557.006 a.635.635 0 0 0-.626.507.639.639 0 0 0 .49.759 l3.019.645
             a.634.634 0 0 0 .754-.493.638.638 0 0 0-.49-.759 l-3.019-.645 a.627.627 0 0 0-.128-.014 z
             m-68.472 2.519 a.626.626 0 0 0-.252.03 l-6.978 2.281 a.639.639 0 0 0-.408.806
             c.109.337.466.52.801.41 l6.979-2.28 a.64.64 0 0 0-.142-1.247 z
             m63.381.023 a.635.635 0 0 0-.55.44.639.639 0 0 0 .408.806 l6.977 2.286
             a.64.64 0 0 0 .394-1.217 l-6.977-2.285 a.626.626 0 0 0-.252-.03 z
             m-66.044 4.973 a.638.638 0 0 0-.247.056 l-2.82 1.262 a.64.64 0 0 0 .517 1.169 l2.82-1.262
             a.64.64 0 0 0-.27-1.225 z m68.704.025 a.64.64 0 0 0-.271 1.224 l2.818 1.264
             a.64.64 0 0 0 .519-1.168 l-2.819-1.265 a.62.62 0 0 0-.247-.055 z
             m-63.214 1.386 a.634.634 0 0 0-.363.084 l-6.354 3.69 a.639.639 0 0 0 .636 1.107
             l6.355-3.688 a.64.64 0 0 0-.274-1.193 z m57.734 0 a.64.64 0 0 0-.274 1.193 l6.355 3.688
             a.632.632 0 0 0 .869-.234.638.638 0 0 0-.232-.873 l-6.355-3.69 a.634.634 0 0 0-.363-.084 z
             m-59.319 5.413 a.641.641 0 0 0-.352.123 l-2.498 1.822 a.642.642 0 0 0-.142.894
             c.207.287.604.35.889.142 l2.498-1.823 a.64.64 0 0 0-.395-1.158 z
             m60.889.022 a.642.642 0 0 0-.396 1.158 l2.497 1.824
             a.633.633 0 0 0 .889-.142.64.64 0 0 0-.141-.893 l-2.497-1.824 a.626.626 0 0 0-.352-.123 z
             m-55.231.221 a.629.629 0 0 0-.459.164 l-5.457 4.932
             a.641.641 0 0 0-.048.903.633.633 0 0 0 .899.048 l5.457-4.932 a.64.64 0 0 0-.392-1.115 z
             m49.573.017 a.64.64 0 0 0-.393 1.115 l5.454 4.937
             a.633.633 0 0 0 .899-.048.641.641 0 0 0-.048-.903 l-5.453-4.936 a.636.636 0 0 0-.459-.165 z
             m-44.396 4.686 a.635.635 0 0 0-.537.264 l-4.316 5.966
             a.64.64 0 0 0 .14.894.632.632 0 0 0 .888-.141 l4.317-5.966 a.641.641 0 0 0-.492-1.017 z
             m39.198.027 a.64.64 0 0 0-.493 1.016 l4.309 5.972 c.206.287.603.35.888.142
             a.64.64 0 0 0 .141-.893 l-4.308-5.972 a.634.634 0 0 0-.537-.265 z
             m-44.77.922 a.637.637 0 0 0-.44.211 l-2.065 2.307
             a.64.64 0 0 0 .047.903.632.632 0 0 0 .898-.047 l2.066-2.307 a.64.64 0 0 0-.506-1.067 z
             m50.374.003 a.641.641 0 0 0-.506 1.067 l2.065 2.307
             a.633.633 0 0 0 .899.047.64.64 0 0 0 .047-.903 l-2.065-2.307 a.63.63 0 0 0-.44-.211 z
             m-38.774 2.558 a.633.633 0 0 0-.593.38 l-2.99 6.738 a.64.64 0 0 0 .322.845
             c.322.144.697 0 .84-.324 l2.99-6.738 a.64.64 0 0 0-.569-.901 z
             m27.137.019 a.64.64 0 0 0-.57.9 l2.981 6.742 a.634.634 0 0 0 .84.324.64.64 0 0 0 .323-.844
             l-2.981-6.742 a.634.634 0 0 0-.593-.38 z m-32.39 2.065 a.632.632 0 0 0-.507.319
             l-1.543 2.687 a.64.64 0 0 0 .233.874.633.633 0 0 0 .869-.234 l1.543-2.688
             a.64.64 0 0 0-.595-.958 z m37.684 0 a.641.641 0 0 0-.595.958 l1.543 2.688
             a.633.633 0 0 0 .869.234.64.64 0 0 0 .233-.874 l-1.543-2.687 a.633.633 0 0 0-.507-.319 z
             m-25.775.096 a.635.635 0 0 0-.626.507 l-1.525 7.217
             a.639.639 0 0 0 .49.759.634.634 0 0 0 .754-.493 l1.525-7.217 a.638.638 0 0 0-.618-.773 z
             m13.844.005 a.639.639 0 0 0-.619.771 l1.52 7.219 a.635.635 0 1 0 1.244-.265 l-1.52-7.218
             a.633.633 0 0 0-.625-.507 z m-6.911.728 a.636.636 0 0 0-.636.639 v7.378
             a.637.637 0 1 0 1.272 0 v-7.378 a.636.636 0 0 0-.636-.639 z
             m-11.678 2.384 a.635.635 0 0 0-.55.44 l-.954 2.952
             a.639.639 0 0 0 .408.806.635.635 0 0 0 .802-.411 l.954-2.952 a.639.639 0 0 0-.66-.835 z
             m23.351.001 a.639.639 0 0 0-.66.836 l.954 2.951 c.109.337.466.52.801.411
             a.639.639 0 0 0 .409-.806 l-.954-2.952 a.636.636 0 0 0-.55-.44 z
             m-15.666 1.644 a.637.637 0 0 0-.57.57 l-.323 3.087 a.635.635 0 1 0 1.265.133 l.323-3.086
             a.638.638 0 0 0-.695-.704 z m7.961.003 a.637.637 0 0 0-.696.703 l.32 3.087
             a.635.635 0 1 0 1.266-.133 l-.321-3.086 a.636.636 0 0 0-.569-.571 z"
          fill="#f4f2f3" />
    <g opacity=".409" filter="url(#d)">
      <path d="m179.816 725.104-34.806 20.333-22.006 34.835 32.193-23.977z" fill="#000" />
    </g>
    <path d="m154.988 755.942-9.976-10.505 35.39-23.938z" fill="#ff5150" />
    <path d="m154.988 755.942-9.976-10.505-25.414 34.443z" fill="#f1f1f1" />
    <path d="m119.598 779.88 35.39-23.938 25.414-34.443z" fill="#000" opacity=".243" />
  </g>
  <defs>
    <radialGradient id="c"
                    cx="0" cy="0" r="1"
                    gradientTransform="matrix(47.3433 0 0 47.6037 150.197 744.292)"
                    gradientUnits="userSpaceOnUse">
      <stop stop-color="#06C2E7" />
      <stop offset=".25" stop-color="#0DB8EC" />
      <stop offset=".5" stop-color="#12AEF1" />
      <stop offset=".75" stop-color="#1F86F9" />
      <stop offset="1" stop-color="#107DDD" />
    </radialGradient>
    <linearGradient id="b"
                    x1="149.998" y1="798.293" x2="149.998" y2="703.086"
                    gradientUnits="userSpaceOnUse">
      <stop stop-color="#BDBDBD" />
      <stop offset="1" stop-color="#fff" />
    </linearGradient>
    <clipPath id="a">
      <path d="M100 703h100v100H100z" fill="#fff" />
    </clipPath>
    <filter id="d"
            x="120.459" y="722.559" width="61.901" height="60.258"
            color-interpolation-filters="sRGB"
            filterUnits="userSpaceOnUse">
      <feFlood flood-opacity="0" result="BackgroundImageFix" />
      <feBlend in="SourceGraphic" in2="BackgroundImageFix" result="shape" />
      <feGaussianBlur result="effect1_foregroundBlur_325_6635" stdDeviation="1.272" />
    </filter>
  </defs>
</svg>